<svg width="152" height="61" viewBox="0 0 152 61" fill="none" xmlns="http://www.w3.org/2000/svg">
<path d="M27.2492 18.8555C32.6186 8.19125 43.4784 1.40315 55.4171 1.24878L121.305 0.39687C138.193 0.17852 152 13.8082 152 30.6972V30.6972C152 47.433 138.433 61 121.697 61H16.7098C9.9905 61 6.26463 53.2177 10.4781 47.9835L13.9714 43.6439C15.3863 41.8862 16.6113 39.9839 17.626 37.9685L27.2492 18.8555Z" fill="black"/>
<path d="M111.86 41.6964C111.86 38.7817 108.337 37.3205 106.274 39.3792L104.881 40.7692C102.786 42.8599 104.266 46.4402 107.226 46.4402C108.161 46.4402 109.052 46.0463 109.682 45.3553L111.006 43.9003C111.555 43.2975 111.86 42.5116 111.86 41.6964Z" fill="white"/>
<path d="M111.86 18.8161C111.86 17.2608 110.599 16 109.043 16C108.279 16 107.547 16.311 107.016 16.8616L85.0328 39.664C82.5838 42.2042 84.384 46.4402 87.9125 46.4402H93.3726C94.416 46.4402 95.4181 46.0325 96.1652 45.304L110.652 31.1774C111.424 30.4245 111.86 29.3919 111.86 28.3136V18.8161Z" fill="white"/>
<path d="M95.2014 22.795C97.6757 20.2619 95.881 16 92.3399 16H85.761C84.6921 16 83.6677 16.4278 82.9163 17.188L60.7338 39.6282C58.2363 42.1546 60.026 46.4402 63.5785 46.4402H70.4205C71.4977 46.4402 72.5293 46.0058 73.2819 45.2353L95.2014 22.795Z" fill="white"/>
</svg>
