<svg width="383" height="351" viewBox="0 0 383 351" fill="none" xmlns="http://www.w3.org/2000/svg">
<path d="M0.359375 100.439C0.359375 87.1842 11.1045 76.439 24.3594 76.439H88.3706C94.8598 76.439 101.073 79.0668 105.592 83.7234L138.341 117.464C147.645 127.049 162.984 127.193 172.467 117.785L283.47 7.64678C287.965 3.18646 294.041 0.683594 300.374 0.683594H358.106C371.361 0.683594 382.106 11.4288 382.106 24.6836V36.6203C382.106 43.1126 379.476 49.3278 374.816 53.8479L255.05 170.012C251.196 173.75 246.039 175.84 240.671 175.84C222.331 175.84 213.09 197.962 225.98 211.008L318.462 304.611C322.901 309.103 325.39 315.164 325.39 321.479V327C325.39 340.255 314.645 351 301.39 351H252.333C246.03 351 239.98 348.52 235.49 344.097L7.51622 119.508C2.93748 114.997 0.359375 108.839 0.359375 102.411V100.439Z" fill="#FFC01D"/>
</svg>
